<svg width="29" height="28" viewBox="0 0 29 28" fill="none" xmlns="http://www.w3.org/2000/svg">
<path d="M7 13.8203C7 14.084 7.11426 14.3477 7.31641 14.541L13.1172 20.333C13.3281 20.5352 13.5566 20.6318 13.8115 20.6318C14.3652 20.6318 14.7695 20.2363 14.7695 19.7002C14.7695 19.4189 14.6641 19.1816 14.4795 19.0059L12.502 17.002L9.95312 14.6729L12.001 14.7959H22.6533C23.2334 14.7959 23.6377 14.3916 23.6377 13.8203C23.6377 13.2402 23.2334 12.8359 22.6533 12.8359H12.001L9.96191 12.959L12.502 10.6299L14.4795 8.62598C14.6641 8.4502 14.7695 8.21289 14.7695 7.93164C14.7695 7.39551 14.3652 7 13.8115 7C13.5566 7 13.3193 7.09668 13.0908 7.31641L7.31641 13.0908C7.11426 13.2842 7 13.5479 7 13.8203Z" fill="white"/>
</svg>
