<svg width="32" height="32" viewBox="0 0 32 32" fill="none" xmlns="http://www.w3.org/2000/svg">
<path d="M12.2666 19.7066L15.7066 22.72C15.8666 22.8666 16.12 22.8666 16.28 22.72L19.72 19.7066C20.6133 18.92 20.7333 17.5866 19.9866 16.6533C19.24 15.72 17.88 15.5466 16.9333 16.2666L16 16.9866L15.0533 16.28C14.0933 15.56 12.7466 15.7333 12 16.6666C11.2533 17.5866 11.3733 18.9333 12.2666 19.7066Z" stroke="white" stroke-width="2" stroke-linecap="round" stroke-linejoin="round"/>
<path d="M29.3334 14.6667V22.6667C29.3334 28 28 29.3334 22.6667 29.3334H9.33335C4.00002 29.3334 2.66669 28 2.66669 22.6667V9.33335C2.66669 4.00002 4.00002 2.66669 9.33335 2.66669H11.3334C13.3334 2.66669 13.7734 3.25335 14.5334 4.26669L16.5334 6.93335C17.04 7.60002 17.3334 8.00002 18.6667 8.00002H22.6667C28 8.00002 29.3334 9.33335 29.3334 14.6667Z" stroke="white" stroke-width="2" stroke-miterlimit="10"/>
</svg>
