<svg width="32" height="32" viewBox="0 0 32 32" fill="none" xmlns="http://www.w3.org/2000/svg">
<path d="M28.2818 11.0523C28.6411 11.6441 28.1638 12.3334 27.4715 12.3334H3.66666C3.11437 12.3334 2.66666 11.8856 2.66666 11.3334V8.56002C2.66666 5.30669 5.30666 2.66669 8.55999 2.66669H11.6533C13.8267 2.66669 14.5067 3.37335 15.3733 4.53335L17.24 7.01335C17.6533 7.56002 17.7067 7.62669 18.48 7.62669H22.2C24.7756 7.62669 27.0341 8.99726 28.2818 11.0523Z" fill="white"/>
<path d="M29.31 15.3299C29.3082 14.779 28.861 14.3333 28.31 14.3333L3.66666 14.3333C3.11437 14.3333 2.66666 14.781 2.66666 15.3333V22.2C2.66666 26.1333 5.86666 29.3333 9.79999 29.3333H22.2C26.1333 29.3333 29.3333 26.1333 29.3333 22.2L29.31 15.3299ZM19.3867 22.6266L16.52 25.1333C16.3733 25.2666 16.1867 25.3333 16 25.3333C15.8133 25.3333 15.6267 25.2666 15.48 25.1333L12.6133 22.6266C11.7067 21.8266 11.5867 20.4666 12.3467 19.52C13.1067 18.56 14.48 18.3866 15.4667 19.12L16 19.52L16.5333 19.12C17.52 18.3866 18.8933 18.56 19.6533 19.52C20.4133 20.4666 20.2933 21.8266 19.3867 22.6266Z" fill="white"/>
</svg>
