<svg width="48" height="48" viewBox="0 0 48 48" fill="none" xmlns="http://www.w3.org/2000/svg">
<path d="M14.8694 37.5101H33.1155C36.385 37.5101 38.0725 35.8226 38.0725 32.5982V14.2617C38.0725 11.0374 36.385 9.34991 33.1155 9.34991H14.8694C11.615 9.34991 9.91238 11.0223 9.91238 14.2617V32.5982C9.91238 35.8226 11.615 37.5101 14.8694 37.5101ZM17.8225 14.8192C18.6512 14.8192 19.269 15.3014 19.6155 15.9492C19.962 15.3014 20.5949 14.8192 21.3783 14.8192C22.6138 14.8192 23.5329 15.7835 23.5329 17.1094C23.5329 19.1585 21.3181 20.9515 20.0223 21.735C19.8867 21.8103 19.7511 21.9007 19.6306 21.9007C19.5251 21.9007 19.3594 21.8254 19.2238 21.735C17.9581 20.8611 15.6981 19.1585 15.6981 17.1094C15.6981 15.7835 16.6172 14.8192 17.8225 14.8192ZM16.6925 26.3153C16.12 26.3153 15.6981 25.8784 15.6981 25.3209C15.6981 24.7785 16.12 24.3717 16.6925 24.3717H31.3075C31.865 24.3717 32.2868 24.7785 32.2868 25.3209C32.2868 25.8784 31.865 26.3153 31.3075 26.3153H16.6925ZM16.6925 31.3326C16.12 31.3326 15.6981 30.9107 15.6981 30.3683C15.6981 29.8259 16.12 29.389 16.6925 29.389H27.5106C28.0681 29.389 28.49 29.8259 28.49 30.3683C28.49 30.9107 28.0681 31.3326 27.5106 31.3326H16.6925Z" fill="#D9D9D9"/>
</svg>
