<svg width="48" height="48" viewBox="0 0 48 48" fill="none" xmlns="http://www.w3.org/2000/svg">
<path d="M14.8694 37.5101H33.1155C36.385 37.5101 38.0725 35.8226 38.0725 32.5982V14.2617C38.0725 11.0374 36.385 9.34991 33.1155 9.34991H14.8694C11.615 9.34991 9.91238 11.0223 9.91238 14.2617V32.5982C9.91238 35.8226 11.615 37.5101 14.8694 37.5101ZM15.0653 34.5117C13.6791 34.5117 12.9107 33.7885 12.9107 32.327V14.533C12.9107 13.0715 13.6791 12.3482 15.0653 12.3482H32.9196C34.2907 12.3482 35.0742 13.0715 35.0742 14.533V32.327C35.0742 33.7885 34.2907 34.5117 32.9196 34.5117H15.0653ZM17.928 14.9548C16.7377 14.9548 15.8337 15.904 15.8337 17.1998C15.8337 19.2037 18.0335 20.8761 19.3142 21.75C19.4498 21.8555 19.6004 21.9158 19.7059 21.9158C19.8114 21.9158 19.947 21.8404 20.0826 21.75C21.3783 20.9816 23.548 19.2037 23.548 17.1998C23.548 15.904 22.644 14.9548 21.4235 14.9548C20.6551 14.9548 20.0374 15.4219 19.6908 16.0698C19.3443 15.4219 18.7416 14.9548 17.928 14.9548ZM16.8131 26.255H31.1869C31.7444 26.255 32.1512 25.8332 32.1512 25.2908C32.1512 24.7634 31.7444 24.3566 31.1869 24.3566H16.8131C16.2556 24.3566 15.8337 24.7634 15.8337 25.2908C15.8337 25.8332 16.2556 26.255 16.8131 26.255ZM16.8131 31.197H27.4503C27.9927 31.197 28.3995 30.7902 28.3995 30.2629C28.3995 29.7205 27.9927 29.2835 27.4503 29.2835H16.8131C16.2556 29.2835 15.8337 29.7205 15.8337 30.2629C15.8337 30.7902 16.2556 31.197 16.8131 31.197Z" fill="#D9D9D9"/>
</svg>
