<svg width="48" height="48" viewBox="0 0 48 48" fill="none" xmlns="http://www.w3.org/2000/svg">
<path d="M35.0222 23.0044V16.9457C35.0222 11.2142 33.6853 9.77771 28.3093 9.77771H17.5573C12.1813 9.77771 10.8444 11.2142 10.8444 16.9457V32.9599C10.8444 36.743 12.9209 37.639 15.4382 34.9368L15.4524 34.9226C16.6186 33.6853 18.3964 33.7848 19.4062 35.1359L20.8426 37.0559" stroke="white" stroke-width="2" stroke-linecap="round" stroke-linejoin="round"/>
<path d="M31.7511 37.3689C34.2647 37.3689 36.3022 35.3313 36.3022 32.8178C36.3022 30.3043 34.2647 28.2667 31.7511 28.2667C29.2376 28.2667 27.2 30.3043 27.2 32.8178C27.2 35.3313 29.2376 37.3689 31.7511 37.3689Z" stroke="white" stroke-width="2" stroke-linecap="round" stroke-linejoin="round"/>
<path d="M37.1556 38.2222L35.7333 36.8" stroke="white" stroke-width="2" stroke-linecap="round" stroke-linejoin="round"/>
<path d="M17.2444 16.8889H28.6222" stroke="white" stroke-width="2" stroke-linecap="round" stroke-linejoin="round"/>
<path d="M18.6667 22.5778H27.2" stroke="white" stroke-width="2" stroke-linecap="round" stroke-linejoin="round"/>
</svg>
