<svg width="48" height="48" viewBox="0 0 48 48" fill="none" xmlns="http://www.w3.org/2000/svg">
<path d="M30.048 8H17.952C11.904 8 10.4 9.616 10.4 16.064V34.08C10.4 38.336 12.736 39.344 15.568 36.304L15.584 36.288C16.896 34.896 18.896 35.008 20.032 36.528L21.648 38.688C22.944 40.4 25.04 40.4 26.336 38.688L27.952 36.528C29.104 34.992 31.104 34.88 32.416 36.288C35.264 39.328 37.584 38.32 37.584 34.064V16.064C37.6 9.616 36.096 8 30.048 8ZM29.856 28.048C29.616 28.288 29.312 28.4 29.008 28.4C28.704 28.4 28.4 28.288 28.16 28.048L26.976 26.864C26.048 27.472 24.928 27.84 23.728 27.84C20.464 27.84 17.808 25.184 17.808 21.92C17.808 18.656 20.448 16 23.728 16C27.008 16 29.648 18.656 29.648 21.92C29.648 23.12 29.28 24.24 28.672 25.168L29.856 26.352C30.32 26.816 30.32 27.584 29.856 28.048Z" fill="white"/>
</svg>
