<svg width="31" height="31" viewBox="0 0 31 31" fill="none" xmlns="http://www.w3.org/2000/svg">
<path fill-rule="evenodd" clip-rule="evenodd" d="M13.9674 2.87573C20.1033 2.87573 25.0775 7.84989 25.0775 13.9858C25.0775 16.6088 24.1685 19.0194 22.6485 20.92L27.1848 25.4575C27.6669 25.9396 27.6669 26.7212 27.1848 27.2033C26.7398 27.6483 26.0396 27.6825 25.5553 27.306L25.439 27.2033L20.9015 22.6669C19.001 24.187 16.5903 25.0959 13.9674 25.0959C7.83146 25.0959 2.8573 20.1218 2.8573 13.9858C2.8573 7.84989 7.83146 2.87573 13.9674 2.87573ZM13.9674 5.34464C9.19499 5.34464 5.32621 9.21343 5.32621 13.9858C5.32621 18.7582 9.19499 22.627 13.9674 22.627C18.7398 22.627 22.6086 18.7582 22.6086 13.9858C22.6086 9.21343 18.7398 5.34464 13.9674 5.34464Z" fill="white"/>
</svg>
